<?xml version="1.0" standalone="no"?>
<!DOCTYPE svg PUBLIC "-//W3C//DTD SVG 20010904//EN"
 "http://www.w3.org/TR/2001/REC-SVG-20010904/DTD/svg10.dtd">
<svg version="1.0" xmlns="http://www.w3.org/2000/svg"
 width="205.000000pt" height="205.000000pt" viewBox="0 0 205.000000 205.000000"
 preserveAspectRatio="xMidYMid meet">

<g transform="translate(0.000000,205.000000) scale(0.100000,-0.100000)"
fill="#000000" stroke="none">
<path d="M300 1483 c-129 -219 -242 -411 -251 -428 l-17 -30 249 -420 248
-420 503 -2 503 -3 248 424 248 424 -249 424 -248 423 -500 3 -500 2 -234
-397z m765 2 c127 -3 256 -8 288 -11 l57 -6 0 -65 0 -65 -147 6 c-82 4 -205 9
-274 12 -148 7 -159 2 -159 -74 0 -26 -3 -78 -7 -116 l-6 -69 271 5 272 5 0
-68 0 -68 -269 -3 c-148 -2 -273 -6 -276 -10 -8 -8 -30 -287 -23 -293 2 -3
143 8 314 24 170 15 312 25 316 22 3 -3 8 -33 10 -66 3 -58 2 -60 -22 -63 -14
-1 -173 -15 -355 -32 l-330 -29 -32 34 c-21 22 -33 45 -33 62 0 16 11 179 25
363 14 184 25 345 25 358 0 21 -4 22 -70 22 l-70 0 0 71 0 71 133 -6 c72 -3
236 -8 362 -11z"/>
</g>
</svg>
